<?xml version="1.0" encoding="UTF-8"?>
<svg id="Layer_1" xmlns="http://www.w3.org/2000/svg" version="1.1" viewBox="0 0 304 209">
  <!-- Generator: Adobe Illustrator 29.8.2, SVG Export Plug-In . SVG Version: 2.1.1 Build 3)  -->
  <defs>
    <style>
      .st0 {
        fill: #833193;
      }

      .st1 {
        isolation: isolate;
      }

      .st2 {
        fill: #259da3;
      }

      .st3 {
        fill: #356da0;
      }
    </style>
  </defs>
  <g id="text12-2">
    <g>
      <path class="st3" d="M12.01,149.43c-.12,0-.23-.04-.3-.12-.08-.08-.12-.18-.12-.3v-8.72h-3c-.12,0-.22-.04-.3-.13-.08-.08-.12-.18-.12-.29v-1.8c0-.12.04-.22.12-.3s.18-.12.3-.12h9.06c.12,0,.22.04.3.12.08.08.12.18.12.3v1.8c0,.11-.04.21-.12.29-.08.08-.18.13-.3.13h-3v8.72c0,.12-.04.22-.12.3s-.18.12-.3.12h-2.22Z"/>
      <path class="st3" d="M21.18,149.43c-.17,0-.29-.04-.37-.12-.08-.08-.14-.18-.19-.3l-2.42-7.8c-.02-.06-.03-.11-.03-.17,0-.1.04-.19.12-.26.08-.07.17-.11.27-.11h1.73c.15,0,.26.04.35.12.08.08.14.16.16.24l1.42,4.82,1.52-4.8c.02-.08.08-.16.16-.24.08-.08.2-.13.36-.13h1.11c.16,0,.28.04.36.13s.14.17.16.24l1.52,4.8,1.42-4.82c.02-.08.08-.16.16-.24.08-.08.2-.12.35-.12h1.74c.1,0,.19.04.26.11.07.07.11.16.11.26,0,.06,0,.11-.02.17l-2.43,7.8c-.03.12-.09.22-.18.3-.08.08-.21.12-.38.12h-1.52c-.16,0-.28-.04-.37-.12-.09-.08-.15-.18-.18-.3l-1.55-4.62-1.55,4.62c-.03.12-.1.22-.19.3-.09.08-.21.12-.37.12h-1.52Z"/>
      <path class="st3" d="M36.75,149.6c-.94,0-1.74-.15-2.38-.45-.65-.3-1.14-.74-1.48-1.31-.34-.57-.54-1.24-.58-2.03-.01-.22-.02-.48-.02-.77s0-.54.02-.75c.04-.8.25-1.48.61-2.04s.86-.99,1.51-1.3c.65-.3,1.42-.45,2.33-.45s1.7.15,2.35.45c.65.3,1.15.74,1.51,1.3s.56,1.24.61,2.04c.01.21.02.46.02.75s0,.54-.02.77c-.04.79-.24,1.46-.58,2.03-.34.57-.84,1-1.48,1.31-.65.3-1.45.45-2.4.45ZM36.75,147.55c.5,0,.87-.15,1.1-.45.23-.3.36-.76.4-1.36.01-.17.02-.39.02-.67s0-.51-.02-.67c-.03-.6-.17-1.05-.4-1.36-.23-.31-.6-.46-1.1-.46s-.86.15-1.1.46c-.24.31-.36.76-.39,1.36-.01.17-.02.39-.02.67s0,.5.02.67c.02.61.15,1.06.39,1.36.24.3.6.45,1.1.45Z"/>
      <path class="st3" d="M46.89,149.43c-.12,0-.22-.04-.3-.12s-.12-.18-.12-.3v-11.12c0-.12.04-.22.12-.3.08-.08.18-.12.3-.12h1.99c.12,0,.22.04.3.12s.12.18.12.3v11.12c0,.12-.04.22-.12.3-.08.08-.18.12-.3.12h-1.99Z"/>
      <path class="st3" d="M53.91,149.6c-.61,0-1.15-.12-1.62-.34-.48-.23-.86-.54-1.14-.93-.28-.39-.42-.84-.42-1.33,0-.8.33-1.43.98-1.89s1.52-.78,2.59-.95l2.11-.32v-.24c0-.4-.08-.71-.25-.93-.17-.21-.48-.32-.93-.32-.32,0-.57.06-.77.18-.2.12-.35.29-.46.51-.1.15-.24.22-.42.22h-1.89c-.12,0-.22-.04-.29-.11s-.09-.16-.08-.26c0-.2.08-.44.23-.7s.38-.52.7-.78c.31-.26.72-.47,1.21-.64.49-.17,1.09-.25,1.79-.25s1.35.08,1.87.25c.52.17.94.4,1.25.71.32.3.56.66.72,1.07.16.41.24.86.24,1.36v5.12c0,.12-.04.22-.13.3-.08.08-.18.12-.29.12h-1.95c-.12,0-.22-.04-.3-.12s-.12-.18-.12-.3v-.59c-.15.21-.34.41-.59.59s-.54.32-.87.43c-.33.11-.72.16-1.15.16ZM54.7,147.68c.33,0,.62-.07.88-.21s.47-.36.62-.66c.15-.3.23-.67.23-1.12v-.24l-1.43.25c-.53.09-.91.23-1.15.41-.24.19-.36.4-.36.65,0,.19.06.35.17.49.11.13.26.24.44.31s.38.11.61.11Z"/>
      <path class="st3" d="M61.64,149.43c-.12,0-.22-.04-.3-.12s-.12-.18-.12-.3v-7.92c0-.12.04-.22.12-.3.08-.08.18-.12.3-.12h1.94c.12,0,.22.04.3.12.08.08.12.18.12.3v.64c.29-.35.67-.64,1.15-.88s1.03-.35,1.67-.35,1.23.15,1.73.44c.5.29.89.72,1.18,1.29.29.57.43,1.26.43,2.08v4.7c0,.12-.04.22-.13.3-.08.08-.18.12-.29.12h-2.12c-.11,0-.21-.04-.29-.12-.08-.08-.13-.18-.13-.3v-4.6c0-.53-.13-.93-.38-1.22s-.63-.43-1.12-.43c-.46,0-.83.14-1.1.43-.27.29-.41.69-.41,1.22v4.6c0,.12-.04.22-.13.3-.08.08-.18.12-.29.12h-2.11Z"/>
      <path class="st3" d="M76.33,153.14c-.87,0-1.58-.11-2.15-.34-.57-.23-1.02-.5-1.35-.81-.33-.31-.57-.63-.72-.94-.15-.31-.22-.55-.24-.73-.01-.12.03-.22.12-.3.09-.08.2-.12.32-.12h2.14c.1,0,.19.03.26.08.07.05.13.14.18.26.06.12.13.25.23.39.09.13.23.24.4.33.17.08.41.13.72.13.34,0,.62-.05.84-.16.22-.11.39-.28.5-.52.11-.24.17-.56.17-.97v-1.13c-.26.28-.59.51-.99.68s-.89.26-1.46.26-1.08-.08-1.52-.25c-.44-.17-.8-.42-1.09-.76s-.52-.75-.68-1.23c-.16-.48-.26-1.04-.29-1.67-.01-.29-.01-.58,0-.88.03-.61.13-1.15.29-1.63s.38-.9.68-1.25c.3-.35.67-.62,1.1-.8.44-.18.94-.28,1.52-.28.61,0,1.12.12,1.56.34.43.23.79.52,1.07.87v-.62c0-.11.04-.21.12-.29.08-.08.18-.13.3-.13h1.94c.12,0,.23.04.31.13.08.08.13.18.13.29v8.1c0,.85-.17,1.57-.52,2.16-.35.58-.85,1.03-1.5,1.33-.65.3-1.44.45-2.38.45ZM76.21,147.06c.36,0,.65-.08.88-.24s.39-.36.5-.61c.11-.25.17-.51.18-.79.01-.12.02-.3.02-.52s0-.39-.02-.5c-.01-.29-.07-.56-.18-.81-.11-.25-.27-.45-.5-.6s-.52-.23-.88-.23-.67.08-.88.24c-.22.16-.38.37-.47.64-.1.27-.16.57-.18.89-.01.25-.01.5,0,.76.02.33.08.62.18.89.09.27.25.48.47.64.22.16.51.24.88.24Z"/>
      <path class="st3" d="M85.93,149.6c-.64,0-1.21-.15-1.71-.44s-.89-.72-1.17-1.29c-.28-.57-.42-1.26-.42-2.08v-4.7c0-.12.04-.22.12-.3.08-.08.18-.12.3-.12h2.11c.12,0,.22.04.3.12.08.08.12.18.12.3v4.6c0,1.1.49,1.65,1.48,1.65.46,0,.83-.14,1.1-.43.28-.29.41-.69.41-1.22v-4.6c0-.12.04-.22.12-.3.08-.08.18-.12.3-.12h2.11c.12,0,.22.04.3.12s.12.18.12.3v7.92c0,.12-.04.22-.12.3-.08.08-.18.12-.3.12h-1.95c-.11,0-.21-.04-.29-.12-.08-.08-.13-.18-.13-.3v-.64c-.29.4-.67.71-1.14.92-.47.21-1.02.31-1.66.31Z"/>
      <path class="st3" d="M96.14,149.6c-.61,0-1.15-.12-1.62-.34-.48-.23-.86-.54-1.14-.93-.28-.39-.42-.84-.42-1.33,0-.8.33-1.43.98-1.89s1.52-.78,2.59-.95l2.11-.32v-.24c0-.4-.08-.71-.25-.93-.17-.21-.48-.32-.93-.32-.32,0-.57.06-.77.18-.2.12-.35.29-.46.51-.1.15-.24.22-.42.22h-1.89c-.12,0-.22-.04-.29-.11s-.09-.16-.08-.26c0-.2.08-.44.23-.7s.38-.52.7-.78c.31-.26.72-.47,1.21-.64.49-.17,1.09-.25,1.79-.25s1.35.08,1.87.25c.52.17.94.4,1.25.71.32.3.56.66.72,1.07.16.41.24.86.24,1.36v5.12c0,.12-.04.22-.13.3-.08.08-.18.12-.29.12h-1.95c-.12,0-.22-.04-.3-.12s-.12-.18-.12-.3v-.59c-.15.21-.34.41-.59.59s-.54.32-.87.43c-.33.11-.72.16-1.15.16ZM96.93,147.68c.33,0,.62-.07.88-.21s.47-.36.62-.66c.15-.3.23-.67.23-1.12v-.24l-1.43.25c-.53.09-.91.23-1.15.41-.24.19-.36.4-.36.65,0,.19.06.35.17.49.11.13.26.24.44.31s.38.11.61.11Z"/>
      <path class="st3" d="M107.74,153.14c-.87,0-1.58-.11-2.15-.34-.57-.23-1.02-.5-1.35-.81-.33-.31-.57-.63-.72-.94-.15-.31-.22-.55-.24-.73-.01-.12.03-.22.12-.3.09-.08.2-.12.32-.12h2.14c.1,0,.19.03.26.08.07.05.13.14.18.26.06.12.13.25.23.39.09.13.23.24.4.33.17.08.41.13.72.13.34,0,.62-.05.84-.16.22-.11.39-.28.5-.52.11-.24.17-.56.17-.97v-1.13c-.26.28-.59.51-.99.68s-.89.26-1.46.26-1.08-.08-1.52-.25c-.44-.17-.8-.42-1.09-.76s-.52-.75-.68-1.23c-.16-.48-.26-1.04-.29-1.67-.01-.29-.01-.58,0-.88.03-.61.13-1.15.29-1.63s.38-.9.68-1.25c.3-.35.67-.62,1.1-.8.44-.18.94-.28,1.52-.28.61,0,1.12.12,1.56.34.43.23.79.52,1.07.87v-.62c0-.11.04-.21.12-.29.08-.08.18-.13.3-.13h1.94c.12,0,.23.04.31.13.08.08.13.18.13.29v8.1c0,.85-.17,1.57-.52,2.16-.35.58-.85,1.03-1.5,1.33-.65.3-1.44.45-2.38.45ZM107.62,147.06c.36,0,.65-.08.88-.24s.39-.36.5-.61c.11-.25.17-.51.18-.79.01-.12.02-.3.02-.52s0-.39-.02-.5c-.01-.29-.07-.56-.18-.81-.11-.25-.27-.45-.5-.6s-.52-.23-.88-.23-.67.08-.88.24c-.22.16-.38.37-.47.64-.1.27-.16.57-.18.89-.01.25-.01.5,0,.76.02.33.08.62.18.89.09.27.25.48.47.64.22.16.51.24.88.24Z"/>
      <path class="st3" d="M118.17,149.6c-1.33,0-2.38-.36-3.17-1.08-.79-.72-1.2-1.79-1.23-3.2v-.59c.03-.89.23-1.65.6-2.28.36-.63.87-1.12,1.52-1.45s1.4-.5,2.27-.5c.99,0,1.8.2,2.45.59.65.39,1.13.93,1.46,1.6.33.67.49,1.44.49,2.31v.4c0,.12-.04.22-.13.3-.08.08-.18.12-.29.12h-5.39v.12c.01.33.07.62.17.89.1.27.26.48.47.64.21.16.47.24.78.24.22,0,.41-.04.56-.11.15-.07.28-.16.38-.25.1-.1.18-.18.24-.24.1-.11.18-.18.24-.21.06-.03.16-.04.29-.04h2.09c.11,0,.2.03.28.09s.1.15.09.26c-.01.19-.11.42-.29.69-.18.27-.44.54-.78.8s-.77.48-1.29.65c-.52.17-1.12.25-1.8.25ZM116.74,144.16h2.85v-.03c0-.36-.05-.67-.16-.94s-.27-.48-.49-.62c-.22-.15-.48-.22-.78-.22s-.56.07-.77.22c-.21.15-.37.35-.48.62s-.17.58-.17.94v.03Z"/>
      <path class="st3" d="M127.73,149.6c-.73,0-1.35-.08-1.86-.24-.51-.16-.93-.36-1.25-.6-.32-.24-.56-.48-.72-.73s-.24-.47-.25-.65c-.01-.12.03-.23.12-.31.09-.08.19-.13.29-.13h1.92s.06,0,.08.02c.02.01.06.03.1.07.15.08.29.18.44.29.15.12.31.22.5.31.19.09.42.13.69.13.31,0,.58-.06.79-.18.21-.12.32-.31.32-.56,0-.18-.05-.33-.15-.45-.1-.12-.31-.23-.62-.35s-.77-.22-1.39-.34c-.58-.13-1.09-.31-1.53-.53-.44-.22-.78-.51-1.01-.86-.24-.35-.35-.78-.35-1.29,0-.45.15-.88.44-1.3.29-.42.72-.76,1.28-1.02s1.25-.4,2.07-.4c.65,0,1.22.08,1.69.23.48.15.88.34,1.21.58.33.24.58.48.75.72.17.25.26.47.27.67.01.11-.02.21-.1.29-.08.08-.17.13-.27.13h-1.75s-.09,0-.13-.02c-.04-.02-.08-.04-.12-.06-.13-.07-.27-.16-.4-.27s-.29-.21-.47-.3-.4-.13-.67-.13c-.3,0-.54.07-.71.2-.17.13-.25.31-.25.52,0,.15.05.28.14.4.09.12.29.24.59.34.3.1.76.21,1.39.34.78.12,1.39.32,1.85.6.46.27.79.59.98.96.19.36.29.75.29,1.15,0,.54-.16,1.02-.48,1.43-.32.42-.79.74-1.42.97-.63.23-1.39.34-2.29.34Z"/>
      <path class="st3" d="M139.69,149.6c-.58,0-1.11-.12-1.58-.34-.47-.23-.84-.54-1.12-.93-.27-.39-.41-.82-.41-1.3,0-.79.32-1.41.95-1.88.63-.47,1.47-.78,2.52-.93l2.31-.34v-.35c0-.47-.12-.84-.35-1.09-.24-.26-.64-.39-1.21-.39-.4,0-.73.08-.99.24-.25.16-.44.38-.56.65-.09.15-.22.22-.39.22h-1.33c-.12,0-.22-.03-.28-.1s-.09-.16-.09-.27c.01-.18.08-.4.22-.66.13-.26.35-.51.64-.75s.67-.45,1.13-.61c.46-.17,1.02-.25,1.67-.25.71,0,1.31.09,1.79.26.49.17.88.41,1.17.7.29.29.5.63.64,1.03.13.39.2.81.2,1.25v5.29c0,.11-.04.21-.12.29-.08.08-.17.12-.29.12h-1.36c-.12,0-.22-.04-.29-.12-.07-.08-.11-.17-.11-.29v-.66c-.15.21-.34.41-.59.6-.25.18-.55.34-.9.45-.35.12-.77.18-1.25.18ZM140.26,148c.39,0,.75-.08,1.07-.25.32-.17.57-.43.76-.78.19-.35.28-.8.28-1.34v-.35l-1.68.27c-.66.1-1.16.26-1.48.49-.33.22-.49.5-.49.83,0,.25.08.46.23.63s.35.3.58.39c.24.08.48.13.74.13Z"/>
      <path class="st3" d="M147.17,149.43c-.11,0-.21-.04-.29-.12-.08-.08-.12-.17-.12-.29v-7.93c0-.12.04-.22.12-.3s.17-.12.29-.12h1.36c.11,0,.21.04.29.12.08.08.13.18.13.3v.69c.26-.36.59-.63,1-.83.41-.19.88-.29,1.42-.29h.69c.12,0,.22.04.29.12.07.08.11.17.11.29v1.21c0,.11-.04.21-.11.29-.07.08-.17.12-.29.12h-1.31c-.54,0-.96.15-1.25.46-.3.3-.45.72-.45,1.25v4.63c0,.11-.04.21-.12.29-.08.08-.18.12-.3.12h-1.47Z"/>
      <path class="st3" d="M157.45,149.6c-1.25,0-2.23-.36-2.96-1.08-.73-.72-1.12-1.74-1.18-3.07-.01-.11-.02-.26-.02-.43s0-.31.02-.41c.04-.84.24-1.57.58-2.19.34-.62.82-1.09,1.42-1.42s1.32-.5,2.14-.5c.91,0,1.67.19,2.29.56.62.38,1.08.9,1.4,1.57s.47,1.44.47,2.32v.35c0,.11-.04.21-.12.29s-.18.12-.3.12h-5.59v.13c.01.39.09.76.23,1.09s.35.6.62.8c.27.2.6.3.99.3.31,0,.58-.05.79-.14s.39-.21.52-.33c.13-.12.23-.22.29-.3.1-.13.18-.22.24-.24s.15-.04.28-.04h1.45c.11,0,.21.03.28.1.07.07.1.15.09.25-.01.18-.1.4-.28.66-.17.26-.42.51-.75.76-.33.25-.73.45-1.22.61-.49.16-1.05.24-1.68.24ZM155.59,144.3h3.72v-.05c0-.44-.07-.82-.22-1.15-.15-.33-.36-.58-.64-.77-.28-.19-.62-.29-1.01-.29s-.73.1-1.01.29c-.28.19-.49.45-.63.77-.14.33-.21.71-.21,1.15v.05Z"/>
      <path class="st3" d="M172.1,149.6c-.65,0-1.19-.11-1.63-.34-.43-.22-.79-.51-1.07-.86v.62c0,.11-.04.21-.11.29-.07.08-.17.12-.29.12h-1.33c-.11,0-.21-.04-.29-.12s-.12-.17-.12-.29v-11.15c0-.11.04-.21.12-.29.08-.08.17-.12.29-.12h1.43c.12,0,.22.04.29.12.07.08.11.17.11.29v3.74c.28-.33.63-.59,1.05-.8.42-.21.94-.31,1.54-.31s1.11.1,1.55.3c.44.2.81.49,1.1.85.3.37.52.79.68,1.27.16.48.24,1.01.25,1.57.01.2.02.38.02.55s0,.35-.02.55c-.02.58-.11,1.12-.27,1.61s-.38.91-.67,1.27c-.29.36-.66.64-1.1.83-.44.2-.95.29-1.55.29ZM171.47,147.8c.48,0,.86-.1,1.13-.31s.46-.48.58-.82.19-.71.21-1.11c.02-.34.02-.67,0-1.01-.02-.4-.09-.77-.21-1.11s-.31-.61-.58-.82c-.27-.21-.65-.31-1.13-.31-.45,0-.81.1-1.09.3-.28.2-.49.46-.64.77-.15.31-.22.63-.24.97-.01.2-.02.42-.02.65s0,.45.02.65c.02.35.1.69.23,1.02s.34.6.62.82c.29.21.66.32,1.12.32Z"/>
      <path class="st3" d="M181.35,149.6c-1.25,0-2.23-.36-2.96-1.08-.73-.72-1.12-1.74-1.18-3.07-.01-.11-.02-.26-.02-.43s0-.31.02-.41c.04-.84.24-1.57.58-2.19.34-.62.82-1.09,1.42-1.42s1.32-.5,2.14-.5c.91,0,1.67.19,2.29.56.62.38,1.08.9,1.4,1.57s.47,1.44.47,2.32v.35c0,.11-.04.21-.12.29s-.18.12-.3.12h-5.59v.13c.01.39.09.76.23,1.09s.35.6.62.8c.27.2.6.3.99.3.31,0,.58-.05.79-.14s.39-.21.52-.33c.13-.12.23-.22.29-.3.1-.13.18-.22.24-.24s.15-.04.28-.04h1.45c.11,0,.21.03.28.1.07.07.1.15.09.25-.01.18-.1.4-.28.66-.17.26-.42.51-.75.76-.33.25-.73.45-1.22.61-.49.16-1.05.24-1.68.24ZM179.49,144.3h3.72v-.05c0-.44-.07-.82-.22-1.15-.15-.33-.36-.58-.64-.77-.28-.19-.62-.29-1.01-.29s-.73.1-1.01.29c-.28.19-.49.45-.63.77-.14.33-.21.71-.21,1.15v.05Z"/>
      <path class="st3" d="M191.22,149.43c-.67,0-1.24-.12-1.7-.35-.46-.24-.8-.59-1.03-1.05s-.34-1.05-.34-1.74v-3.82h-1.33c-.11,0-.21-.04-.29-.12s-.12-.17-.12-.29v-.98c0-.11.04-.21.12-.29s.17-.12.29-.12h1.33v-2.8c0-.11.04-.21.11-.29.07-.08.17-.12.29-.12h1.36c.11,0,.21.04.29.12.08.08.12.17.12.29v2.8h2.11c.11,0,.21.04.29.12.08.08.12.17.12.29v.98c0,.11-.04.21-.12.29-.08.08-.17.12-.29.12h-2.11v3.65c0,.46.08.82.24,1.08.16.26.45.39.85.39h1.16c.11,0,.21.04.29.12s.12.17.12.29v1.04c0,.11-.04.21-.12.29s-.17.12-.29.12h-1.36Z"/>
      <path class="st3" d="M198.44,149.43c-.67,0-1.24-.12-1.7-.35-.46-.24-.8-.59-1.03-1.05s-.34-1.05-.34-1.74v-3.82h-1.33c-.11,0-.21-.04-.29-.12s-.12-.17-.12-.29v-.98c0-.11.04-.21.12-.29s.17-.12.29-.12h1.33v-2.8c0-.11.04-.21.11-.29.07-.08.17-.12.29-.12h1.36c.11,0,.21.04.29.12.08.08.12.17.12.29v2.8h2.11c.11,0,.21.04.29.12.08.08.12.17.12.29v.98c0,.11-.04.21-.12.29-.08.08-.17.12-.29.12h-2.11v3.65c0,.46.08.82.24,1.08.16.26.45.39.85.39h1.16c.11,0,.21.04.29.12s.12.17.12.29v1.04c0,.11-.04.21-.12.29s-.17.12-.29.12h-1.36Z"/>
      <path class="st3" d="M205.48,149.6c-1.25,0-2.23-.36-2.96-1.08-.73-.72-1.12-1.74-1.18-3.07-.01-.11-.02-.26-.02-.43s0-.31.02-.41c.04-.84.24-1.57.58-2.19.34-.62.82-1.09,1.42-1.42s1.32-.5,2.14-.5c.91,0,1.67.19,2.29.56.62.38,1.08.9,1.4,1.57s.47,1.44.47,2.32v.35c0,.11-.04.21-.12.29s-.18.12-.3.12h-5.59v.13c.01.39.09.76.23,1.09s.35.6.62.8c.27.2.6.3.99.3.31,0,.58-.05.79-.14s.39-.21.52-.33c.13-.12.23-.22.29-.3.1-.13.18-.22.24-.24s.15-.04.28-.04h1.45c.11,0,.21.03.28.1.07.07.1.15.09.25-.01.18-.1.4-.28.66-.17.26-.42.51-.75.76-.33.25-.73.45-1.22.61-.49.16-1.05.24-1.68.24ZM203.63,144.3h3.72v-.05c0-.44-.07-.82-.22-1.15-.15-.33-.36-.58-.64-.77-.28-.19-.62-.29-1.01-.29s-.73.1-1.01.29c-.28.19-.49.45-.63.77-.14.33-.21.71-.21,1.15v.05Z"/>
      <path class="st3" d="M211.83,149.43c-.11,0-.21-.04-.29-.12-.08-.08-.12-.17-.12-.29v-7.93c0-.12.04-.22.12-.3s.17-.12.29-.12h1.36c.11,0,.21.04.29.12.08.08.13.18.13.3v.69c.26-.36.59-.63,1-.83.41-.19.88-.29,1.42-.29h.69c.12,0,.22.04.29.12.07.08.11.17.11.29v1.21c0,.11-.04.21-.11.29-.07.08-.17.12-.29.12h-1.31c-.54,0-.96.15-1.25.46-.3.3-.45.72-.45,1.25v4.63c0,.11-.04.21-.12.29-.08.08-.18.12-.3.12h-1.47Z"/>
      <path class="st3" d="M225.58,149.43c-.67,0-1.24-.12-1.7-.35-.46-.24-.8-.59-1.03-1.05s-.34-1.05-.34-1.74v-3.82h-1.33c-.11,0-.21-.04-.29-.12s-.12-.17-.12-.29v-.98c0-.11.04-.21.12-.29s.17-.12.29-.12h1.33v-2.8c0-.11.04-.21.11-.29.07-.08.17-.12.29-.12h1.36c.11,0,.21.04.29.12.08.08.12.17.12.29v2.8h2.11c.11,0,.21.04.29.12.08.08.12.17.12.29v.98c0,.11-.04.21-.12.29-.08.08-.17.12-.29.12h-2.11v3.65c0,.46.08.82.24,1.08.16.26.45.39.85.39h1.16c.11,0,.21.04.29.12s.12.17.12.29v1.04c0,.11-.04.21-.12.29s-.17.12-.29.12h-1.36Z"/>
      <path class="st3" d="M229.26,149.43c-.11,0-.21-.04-.29-.12s-.12-.17-.12-.29v-11.15c0-.11.04-.21.12-.29.08-.08.17-.12.29-.12h1.5c.12,0,.22.04.29.12.07.08.11.17.11.29v3.84c.3-.36.67-.65,1.11-.88.44-.22.98-.34,1.62-.34.68,0,1.28.15,1.79.46.51.31.91.74,1.19,1.31.28.56.42,1.24.42,2.02v4.73c0,.11-.04.21-.12.29s-.17.12-.29.12h-1.52c-.11,0-.21-.04-.29-.12-.08-.08-.12-.17-.12-.29v-4.63c0-.65-.16-1.16-.48-1.53-.32-.37-.78-.56-1.39-.56s-1.05.19-1.41.56c-.35.37-.53.88-.53,1.53v4.63c0,.11-.04.21-.11.29-.07.08-.17.12-.29.12h-1.5Z"/>
      <path class="st3" d="M241.98,149.6c-.58,0-1.11-.12-1.58-.34-.47-.23-.84-.54-1.12-.93-.27-.39-.41-.82-.41-1.3,0-.79.32-1.41.95-1.88.63-.47,1.47-.78,2.52-.93l2.31-.34v-.35c0-.47-.12-.84-.35-1.09-.24-.26-.64-.39-1.21-.39-.4,0-.73.08-.99.24-.25.16-.44.38-.56.65-.09.15-.22.22-.39.22h-1.33c-.12,0-.22-.03-.28-.1s-.09-.16-.09-.27c.01-.18.08-.4.22-.66.13-.26.35-.51.64-.75s.67-.45,1.13-.61c.46-.17,1.02-.25,1.67-.25.71,0,1.31.09,1.79.26.49.17.88.41,1.17.7.29.29.5.63.64,1.03.13.39.2.81.2,1.25v5.29c0,.11-.04.21-.12.29-.08.08-.17.12-.29.12h-1.36c-.12,0-.22-.04-.29-.12-.07-.08-.11-.17-.11-.29v-.66c-.15.21-.34.41-.59.6-.25.18-.55.34-.9.45-.35.12-.77.18-1.25.18ZM242.55,148c.39,0,.75-.08,1.07-.25.32-.17.57-.43.76-.78.19-.35.28-.8.28-1.34v-.35l-1.68.27c-.66.1-1.16.26-1.48.49-.33.22-.49.5-.49.83,0,.25.08.46.23.63s.35.3.58.39c.24.08.48.13.74.13Z"/>
      <path class="st3" d="M249.46,149.43c-.11,0-.21-.04-.29-.12-.08-.08-.12-.17-.12-.29v-7.95c0-.11.04-.21.12-.29s.17-.12.29-.12h1.38c.11,0,.21.04.29.12.08.08.12.17.12.29v.69c.29-.36.67-.66,1.12-.9.46-.24,1.02-.36,1.69-.36s1.28.15,1.79.46c.51.31.9.74,1.17,1.31.27.56.41,1.24.41,2.02v4.73c0,.11-.04.21-.12.29s-.17.12-.29.12h-1.48c-.11,0-.21-.04-.29-.12s-.12-.17-.12-.29v-4.63c0-.65-.16-1.16-.48-1.53-.32-.37-.78-.56-1.39-.56s-1.05.19-1.4.56c-.35.37-.52.88-.52,1.53v4.63c0,.11-.04.21-.12.29-.08.08-.17.12-.29.12h-1.48Z"/>
      <path class="st3" d="M267.29,149.6c-.9,0-1.65-.16-2.27-.47-.61-.31-1.08-.76-1.4-1.33s-.5-1.24-.55-2c-.01-.2-.02-.45-.02-.74s0-.54.02-.74c.04-.78.23-1.45.56-2.01.33-.57.8-1.01,1.42-1.32s1.36-.47,2.23-.47,1.62.16,2.23.47c.61.31,1.08.75,1.41,1.32.33.57.52,1.24.56,2.01.01.2.02.45.02.74s0,.54-.02.74c-.04.76-.23,1.43-.55,2-.32.57-.79,1.02-1.4,1.33-.61.31-1.37.47-2.27.47ZM267.29,147.93c.6,0,1.06-.19,1.38-.56.33-.38.5-.93.54-1.66.01-.17.02-.39.02-.66s0-.49-.02-.66c-.03-.72-.21-1.27-.54-1.65-.33-.38-.79-.57-1.38-.57s-1.06.19-1.38.57c-.33.38-.5.93-.54,1.65-.01.17-.02.39-.02.66s0,.49.02.66c.03.73.21,1.28.54,1.66.33.38.79.56,1.38.56Z"/>
      <path class="st3" d="M273.8,149.43c-.11,0-.21-.04-.29-.12-.08-.08-.12-.17-.12-.29v-7.95c0-.11.04-.21.12-.29s.17-.12.29-.12h1.38c.11,0,.21.04.29.12.08.08.12.17.12.29v.69c.29-.36.67-.66,1.12-.9.46-.24,1.02-.36,1.69-.36s1.28.15,1.79.46c.51.31.9.74,1.17,1.31.27.56.41,1.24.41,2.02v4.73c0,.11-.04.21-.12.29s-.17.12-.29.12h-1.48c-.11,0-.21-.04-.29-.12s-.12-.17-.12-.29v-4.63c0-.65-.16-1.16-.48-1.53-.32-.37-.78-.56-1.39-.56s-1.05.19-1.4.56c-.35.37-.52.88-.52,1.53v4.63c0,.11-.04.21-.12.29-.08.08-.17.12-.29.12h-1.48Z"/>
      <path class="st3" d="M287.68,149.6c-1.25,0-2.23-.36-2.96-1.08-.73-.72-1.12-1.74-1.18-3.07-.01-.11-.02-.26-.02-.43s0-.31.02-.41c.04-.84.24-1.57.58-2.19.34-.62.82-1.09,1.42-1.42s1.32-.5,2.14-.5c.91,0,1.67.19,2.29.56.62.38,1.08.9,1.4,1.57s.47,1.44.47,2.32v.35c0,.11-.04.21-.12.29s-.18.12-.3.12h-5.59v.13c.01.39.09.76.23,1.09s.35.6.62.8c.27.2.6.3.99.3.31,0,.58-.05.79-.14s.39-.21.52-.33c.13-.12.23-.22.29-.3.1-.13.18-.22.24-.24s.15-.04.28-.04h1.45c.11,0,.21.03.28.1.07.07.1.15.09.25-.01.18-.1.4-.28.66-.17.26-.42.51-.75.76-.33.25-.73.45-1.22.61-.49.16-1.05.24-1.68.24ZM285.82,144.3h3.72v-.05c0-.44-.07-.82-.22-1.15-.15-.33-.36-.58-.64-.77-.28-.19-.62-.29-1.01-.29s-.73.1-1.01.29c-.28.19-.49.45-.63.77-.14.33-.21.71-.21,1.15v.05Z"/>
    </g>
  </g>
  <g id="text12-1-4">
    <g>
      <g class="st1">
        <path class="st2" d="M43.82,39.69c-.21,0-.39-.07-.52-.2-.14-.14-.2-.3-.2-.5v-18.96c0-.21.07-.39.2-.52.14-.14.31-.2.52-.2h2.3c.27,0,.48.07.61.22.13.15.22.26.26.33l5.62,10.48,5.68-10.48c.04-.08.12-.19.26-.33.13-.15.34-.22.61-.22h2.27c.21,0,.39.07.53.2.13.14.2.31.2.52v18.96c0,.19-.07.36-.2.5-.14.14-.31.2-.53.2h-2.45c-.21,0-.38-.07-.51-.2-.13-.14-.19-.3-.19-.5v-12.61l-4.08,7.78c-.1.17-.22.33-.38.45-.16.13-.36.19-.61.19h-1.19c-.27,0-.48-.06-.62-.19-.15-.13-.27-.28-.37-.45l-4.08-7.78v12.61c0,.19-.07.36-.2.5s-.3.2-.5.2h-2.45Z"/>
        <path class="st2" d="M74.83,39.98c-1.69,0-3.16-.29-4.4-.86s-2.2-1.46-2.88-2.65c-.68-1.19-1.02-2.72-1.02-4.59v-11.85c0-.21.07-.39.21-.52.13-.14.3-.2.49-.2h2.65c.21,0,.38.07.51.2.12.14.19.31.19.52v11.85c0,1.59.38,2.77,1.13,3.54.76.77,1.8,1.15,3.12,1.15s2.35-.38,3.1-1.15c.75-.77,1.12-1.95,1.12-3.54v-11.85c0-.21.07-.39.2-.52.13-.14.31-.2.52-.2h2.62c.21,0,.38.07.51.2.13.14.19.31.19.52v11.85c0,1.86-.33,3.39-1,4.59-.67,1.19-1.62,2.08-2.85,2.65-1.23.57-2.71.86-4.41.86Z"/>
        <path class="st2" d="M88.17,39.69c-.2,0-.36-.07-.5-.2s-.2-.3-.2-.5v-18.99c0-.19.07-.36.2-.5.14-.14.3-.2.5-.2h2.71c.19,0,.36.07.5.2.13.14.2.3.2.5v16.22h9.23c.21,0,.39.07.52.2.13.14.2.31.2.52v2.04c0,.19-.07.36-.2.5-.14.14-.31.2-.52.2h-12.64Z"/>
        <path class="st2" d="M106.25,39.69c-.2,0-.36-.07-.5-.2-.13-.14-.2-.3-.2-.5v-16.1h-5.39c-.2,0-.36-.07-.5-.2-.14-.14-.2-.3-.2-.5v-2.15c0-.21.07-.39.2-.52.13-.14.3-.2.5-.2h14.85c.21,0,.39.07.52.2.14.14.2.31.2.52v2.15c0,.19-.07.36-.2.5s-.31.2-.52.2h-5.36v16.1c0,.19-.07.36-.2.5-.14.14-.31.2-.53.2h-2.68Z"/>
        <path class="st2" d="M119.39,39.69c-.19,0-.36-.07-.49-.2-.14-.14-.21-.3-.21-.5v-18.99c0-.19.07-.36.21-.5.13-.14.3-.2.49-.2h2.74c.21,0,.38.07.51.2.12.14.19.3.19.5v18.99c0,.19-.06.36-.19.5-.13.14-.3.2-.51.2h-2.74Z"/>
        <path class="st2" d="M128.09,39.69c-.19,0-.36-.07-.49-.2-.14-.14-.21-.3-.21-.5v-18.99c0-.19.07-.36.21-.5.13-.14.3-.2.49-.2h2.71c.19,0,.36.07.49.2.14.14.21.3.21.5v16.22h9.23c.21,0,.39.07.52.2.14.14.21.31.21.52v2.04c0,.19-.07.36-.21.5-.13.14-.31.2-.52.2h-12.64Z"/>
        <path class="st2" d="M144.98,39.69c-.19,0-.36-.07-.49-.2-.14-.14-.21-.3-.21-.5v-18.99c0-.19.07-.36.21-.5.13-.14.3-.2.49-.2h2.74c.21,0,.38.07.51.2.12.14.19.3.19.5v18.99c0,.19-.06.36-.19.5-.13.14-.3.2-.51.2h-2.74Z"/>
        <path class="st2" d="M153.69,39.69c-.19,0-.36-.07-.49-.2-.14-.14-.21-.3-.21-.5v-18.96c0-.21.07-.39.21-.52.13-.14.3-.2.49-.2h2.24c.27,0,.47.06.6.19.12.13.21.22.25.28l8.39,13.05v-12.78c0-.21.06-.39.19-.52.12-.14.29-.2.51-.2h2.45c.21,0,.39.07.52.2.14.14.21.31.21.52v18.93c0,.21-.07.39-.21.52-.13.14-.3.2-.49.2h-2.27c-.27,0-.47-.07-.58-.2-.12-.14-.21-.22-.26-.26l-8.36-12.76v12.52c0,.19-.07.36-.2.5-.14.14-.31.2-.52.2h-2.45Z"/>
        <path class="st2" d="M181.5,39.98c-1.79,0-3.3-.31-4.56-.93-1.25-.62-2.22-1.52-2.91-2.69-.69-1.17-1.06-2.58-1.12-4.21-.02-.83-.03-1.73-.03-2.69s0-1.87.03-2.72c.06-1.61.43-2.99,1.12-4.14s1.67-2.03,2.94-2.65c1.27-.62,2.78-.93,4.53-.93,1.42,0,2.66.19,3.73.57,1.07.38,1.96.86,2.67,1.46.71.59,1.24,1.23,1.6,1.91.36.68.55,1.31.57,1.89.02.17-.03.32-.14.44-.12.12-.27.17-.47.17h-3c-.2,0-.34-.04-.44-.12-.1-.08-.19-.19-.26-.35-.16-.41-.4-.81-.73-1.21-.33-.4-.78-.73-1.34-1s-1.29-.41-2.18-.41c-1.32,0-2.37.35-3.16,1.05-.79.7-1.21,1.85-1.27,3.47-.06,1.69-.06,3.4,0,5.13.06,1.65.49,2.83,1.3,3.55.8.72,1.87,1.08,3.19,1.08.87,0,1.65-.16,2.34-.47.69-.31,1.23-.8,1.63-1.46.4-.66.6-1.5.6-2.53v-.9h-3.55c-.19,0-.36-.07-.49-.2-.14-.14-.2-.31-.2-.52v-1.54c0-.21.07-.39.2-.52.13-.14.3-.2.49-.2h6.96c.21,0,.38.07.51.2.12.14.19.31.19.52v3.06c0,1.63-.36,3.04-1.06,4.22-.71,1.18-1.72,2.1-3.03,2.74s-2.86.96-4.64.96Z"/>
        <path class="st2" d="M202.09,39.98c-1.69,0-3.15-.29-4.4-.86s-2.21-1.46-2.88-2.65c-.68-1.19-1.02-2.72-1.02-4.59v-11.85c0-.21.07-.39.2-.52.14-.14.3-.2.5-.2h2.65c.21,0,.38.07.51.2.13.14.19.31.19.52v11.85c0,1.59.38,2.77,1.14,3.54.76.77,1.79,1.15,3.12,1.15s2.35-.38,3.1-1.15,1.12-1.95,1.12-3.54v-11.85c0-.21.07-.39.21-.52.13-.14.31-.2.52-.2h2.62c.21,0,.38.07.51.2.12.14.19.31.19.52v11.85c0,1.86-.34,3.39-1.01,4.59-.67,1.19-1.62,2.08-2.85,2.65s-2.7.86-4.41.86Z"/>
        <path class="st2" d="M213.04,39.69c-.16,0-.3-.06-.42-.17-.12-.12-.19-.26-.19-.44,0-.08.02-.17.06-.26l7.02-18.78c.06-.19.17-.36.33-.51s.39-.22.69-.22h3.17c.29,0,.51.07.67.22.15.15.27.32.35.51l7.02,18.78c.02.1.03.18.03.26,0,.17-.06.32-.18.44-.12.12-.25.17-.41.17h-2.54c-.27,0-.47-.06-.6-.19-.13-.13-.21-.25-.25-.36l-1.37-3.55h-8.65l-1.37,3.55c-.04.12-.12.24-.25.36-.12.13-.32.19-.6.19h-2.53ZM218.81,32.24h6.61l-3.32-9-3.29,9Z"/>
        <path class="st2" d="M235.17,39.69c-.19,0-.36-.07-.49-.2-.14-.14-.21-.3-.21-.5v-18.99c0-.19.07-.36.21-.5.13-.14.3-.2.49-.2h2.71c.19,0,.36.07.49.2.14.14.21.3.21.5v16.22h9.23c.21,0,.39.07.52.2.14.14.21.31.21.52v2.04c0,.19-.07.36-.21.5-.13.14-.31.2-.52.2h-12.64Z"/>
        <path class="st2" d="M252.06,39.69c-.19,0-.36-.07-.49-.2-.14-.14-.21-.3-.21-.5v-18.96c0-.21.07-.39.21-.52.13-.14.3-.2.49-.2h12.81c.21,0,.39.07.52.2.13.14.2.31.2.52v1.92c0,.19-.07.36-.2.5-.14.14-.31.2-.52.2h-9.58v5.15h8.94c.21,0,.39.06.52.19.13.13.2.3.2.51v1.81c0,.21-.07.38-.2.51-.14.13-.31.19-.52.19h-8.94v5.33h9.81c.21,0,.39.07.52.2.14.14.21.31.21.52v1.92c0,.19-.07.36-.21.5-.13.14-.31.2-.52.2h-13.05Z"/>
      </g>
      <g class="st1">
        <path class="st2" d="M42.5,76.03c-.2,0-.37-.07-.51-.21-.14-.14-.21-.31-.21-.51v-19.41c0-.2.07-.37.21-.51.14-.14.31-.21.51-.21h2.77c.2,0,.37.07.51.21.14.14.21.31.21.51v16.58h9.44c.22,0,.4.07.54.21s.21.32.21.54v2.08c0,.2-.07.37-.21.51-.14.14-.32.21-.54.21h-12.92Z"/>
        <path class="st2" d="M66.8,76.33c-1.77,0-3.29-.29-4.55-.88-1.27-.58-2.26-1.49-2.98-2.71-.71-1.22-1.1-2.74-1.16-4.57-.02-.85-.03-1.7-.03-2.53s0-1.69.03-2.56c.06-1.81.46-3.31,1.19-4.52s1.74-2.12,3.02-2.74,2.77-.92,4.48-.92,3.21.31,4.5.92,2.3,1.53,3.04,2.74,1.13,2.72,1.19,4.52c.04.87.06,1.73.06,2.56s-.02,1.68-.06,2.53c-.06,1.83-.45,3.35-1.16,4.57s-1.71,2.12-2.99,2.71c-1.28.59-2.8.88-4.57.88ZM66.8,72.9c1.29,0,2.34-.38,3.16-1.15.81-.76,1.25-2.01,1.31-3.74.04-.87.06-1.68.06-2.43s-.02-1.54-.06-2.4c-.04-1.15-.25-2.09-.64-2.81-.39-.72-.91-1.25-1.56-1.58-.66-.33-1.41-.49-2.26-.49s-1.58.16-2.23.49c-.66.33-1.18.85-1.56,1.58-.39.72-.6,1.66-.64,2.81-.02.85-.03,1.65-.03,2.4s0,1.55.03,2.43c.06,1.73.5,2.97,1.31,3.74.81.76,1.86,1.15,3.13,1.15Z"/>
        <path class="st2" d="M87.58,76.33c-1.83,0-3.38-.32-4.66-.95-1.28-.64-2.27-1.55-2.98-2.75-.7-1.2-1.09-2.63-1.15-4.3-.02-.85-.03-1.77-.03-2.75s0-1.91.03-2.78c.06-1.65.44-3.06,1.15-4.23s1.71-2.07,3.01-2.71,2.84-.95,4.63-.95c1.45,0,2.72.19,3.81.58,1.09.39,2,.88,2.72,1.49.72.61,1.27,1.26,1.64,1.95.37.7.56,1.34.58,1.94.02.18-.03.33-.15.45s-.28.18-.48.18h-3.07c-.2,0-.35-.04-.45-.12-.1-.08-.19-.2-.27-.36-.16-.42-.41-.83-.74-1.24-.34-.41-.79-.75-1.37-1.03-.58-.28-1.32-.42-2.23-.42-1.35,0-2.43.36-3.23,1.07s-1.24,1.9-1.29,3.54c-.06,1.73-.06,3.47,0,5.24.06,1.69.5,2.9,1.32,3.63s1.91,1.1,3.26,1.1c.89,0,1.69-.16,2.4-.48.71-.32,1.26-.81,1.67-1.49.41-.67.61-1.54.61-2.59v-.92h-3.63c-.2,0-.37-.07-.51-.21-.14-.14-.21-.32-.21-.54v-1.58c0-.22.07-.4.21-.54.14-.14.31-.21.51-.21h7.12c.22,0,.39.07.52.21.13.14.19.32.19.54v3.13c0,1.67-.36,3.11-1.09,4.32s-1.76,2.14-3.1,2.8c-1.34.65-2.92.98-4.75.98Z"/>
        <path class="st2" d="M108.32,76.33c-1.77,0-3.29-.29-4.55-.88-1.27-.58-2.26-1.49-2.98-2.71-.71-1.22-1.1-2.74-1.16-4.57-.02-.85-.03-1.7-.03-2.53s0-1.69.03-2.56c.06-1.81.46-3.31,1.19-4.52s1.74-2.12,3.02-2.74,2.77-.92,4.48-.92,3.21.31,4.5.92,2.3,1.53,3.04,2.74,1.13,2.72,1.19,4.52c.04.87.06,1.73.06,2.56s-.02,1.68-.06,2.53c-.06,1.83-.45,3.35-1.16,4.57s-1.71,2.12-2.99,2.71c-1.28.59-2.8.88-4.57.88ZM108.32,72.9c1.29,0,2.34-.38,3.16-1.15.81-.76,1.25-2.01,1.31-3.74.04-.87.06-1.68.06-2.43s-.02-1.54-.06-2.4c-.04-1.15-.25-2.09-.64-2.81-.39-.72-.91-1.25-1.56-1.58-.66-.33-1.41-.49-2.26-.49s-1.58.16-2.23.49c-.66.33-1.18.85-1.56,1.58-.39.72-.6,1.66-.64,2.81-.02.85-.03,1.65-.03,2.4s0,1.55.03,2.43c.06,1.73.5,2.97,1.31,3.74.81.76,1.86,1.15,3.13,1.15Z"/>
        <path class="st2" d="M121.72,76.03c-.2,0-.37-.07-.51-.21-.14-.14-.21-.31-.21-.51v-19.38c0-.22.07-.4.21-.54.14-.14.31-.21.51-.21h7.98c1.55,0,2.9.24,4.05.73,1.15.49,2.04,1.22,2.68,2.2.63.98.95,2.21.95,3.68s-.32,2.71-.95,3.68c-.64.96-1.53,1.68-2.68,2.16-1.15.48-2.5.71-4.05.71h-4.44v6.97c0,.2-.06.37-.19.51-.13.14-.3.21-.52.21h-2.83ZM125.2,65.04h4.35c1.15,0,2.03-.27,2.65-.82.61-.55.92-1.35.92-2.43,0-.99-.29-1.79-.86-2.4-.58-.6-1.48-.91-2.71-.91h-4.35v6.55Z"/>
        <path class="st2" d="M138.03,76.03c-.16,0-.3-.06-.43-.18s-.19-.27-.19-.45c0-.08.02-.17.06-.27l7.17-19.2c.06-.2.17-.37.34-.52.17-.15.4-.22.7-.22h3.25c.3,0,.53.07.68.22.16.15.28.32.36.52l7.17,19.2c.02.1.03.19.03.27,0,.18-.06.33-.18.45s-.26.18-.42.18h-2.59c-.28,0-.48-.06-.61-.19-.13-.13-.21-.25-.25-.37l-1.4-3.63h-8.84l-1.4,3.63c-.04.12-.12.24-.25.37-.13.13-.33.19-.61.19h-2.59ZM142.95,53.7c-.2,0-.36-.06-.48-.18s-.18-.28-.18-.48v-2.17c0-.2.06-.36.18-.49.12-.13.28-.19.48-.19h2.17c.2,0,.36.06.49.19.13.13.19.29.19.49v2.17c0,.2-.06.36-.19.48s-.29.18-.49.18h-2.17ZM143.93,68.41h6.76l-3.39-9.2-3.36,9.2ZM149.44,53.7c-.2,0-.36-.06-.48-.18s-.18-.28-.18-.48v-2.17c0-.2.06-.36.18-.49.12-.13.28-.19.48-.19h2.17c.2,0,.36.06.49.19.13.13.19.29.19.49v2.17c0,.2-.06.36-.19.48-.13.12-.29.18-.49.18h-2.17Z"/>
        <path class="st2" d="M160.66,76.03c-.2,0-.37-.07-.51-.21-.14-.14-.21-.31-.21-.51v-19.38c0-.22.07-.4.21-.54.14-.14.31-.21.51-.21h7.26c2,0,3.66.31,4.96.92,1.3.62,2.28,1.53,2.95,2.74.67,1.21,1.01,2.69,1.03,4.44.04.87.06,1.65.06,2.32s-.02,1.44-.06,2.29c-.04,1.85-.38,3.37-1.01,4.57-.63,1.2-1.59,2.09-2.87,2.68-1.28.59-2.91.88-4.9.88h-7.41ZM164.08,72.61h3.84c1.11,0,2.01-.16,2.71-.48.69-.32,1.21-.83,1.53-1.53.33-.7.5-1.63.52-2.78.02-.6.03-1.12.04-1.56,0-.45,0-.89,0-1.34-.01-.45-.03-.96-.04-1.53-.04-1.63-.45-2.83-1.22-3.6-.77-.77-2-1.16-3.69-1.16h-3.69v13.99Z"/>
        <path class="st2" d="M181.59,76.03c-.2,0-.37-.07-.51-.21-.14-.14-.21-.31-.21-.51v-19.41c0-.2.07-.37.21-.51.14-.14.31-.21.51-.21h2.8c.22,0,.39.07.52.21.13.14.19.31.19.51v19.41c0,.2-.07.37-.19.51-.13.14-.3.21-.52.21h-2.8Z"/>
        <path class="st2" d="M197.01,76.33c-1.85,0-3.39-.27-4.63-.82s-2.18-1.26-2.83-2.14c-.65-.88-.99-1.81-1.03-2.78,0-.18.06-.33.18-.45s.27-.18.45-.18h2.65c.26,0,.45.06.58.16.13.11.24.24.34.4.12.38.35.75.68,1.12.34.37.8.67,1.38.91.59.24,1.33.36,2.22.36,1.43,0,2.5-.24,3.2-.71.71-.48,1.06-1.12,1.06-1.94,0-.58-.19-1.04-.57-1.38-.38-.35-.96-.66-1.74-.95-.78-.29-1.82-.59-3.11-.91-1.49-.36-2.73-.79-3.74-1.29-1-.51-1.76-1.15-2.26-1.92s-.76-1.76-.76-2.95.31-2.17.94-3.07c.62-.89,1.52-1.6,2.68-2.11,1.16-.52,2.55-.77,4.15-.77,1.29,0,2.43.17,3.42.52.99.35,1.82.8,2.47,1.37.65.57,1.16,1.17,1.5,1.82.35.65.53,1.28.55,1.89,0,.16-.05.3-.16.43-.11.13-.26.19-.46.19h-2.77c-.16,0-.32-.04-.48-.12-.16-.08-.29-.23-.39-.45-.12-.62-.51-1.14-1.16-1.58-.66-.44-1.5-.65-2.53-.65s-1.93.2-2.59.6c-.66.4-.98,1.01-.98,1.85,0,.56.16,1.02.49,1.38.33.37.85.69,1.58.97.72.28,1.68.58,2.87.89,1.69.38,3.07.81,4.14,1.31,1.07.5,1.86,1.13,2.35,1.89.5.76.74,1.73.74,2.9,0,1.31-.35,2.43-1.06,3.35-.71.92-1.69,1.63-2.96,2.13-1.27.5-2.75.74-4.44.74Z"/>
        <path class="st2" d="M216.92,76.33c-1.85,0-3.41-.32-4.69-.97-1.28-.64-2.26-1.57-2.93-2.77-.68-1.2-1.05-2.64-1.13-4.33-.02-.81-.03-1.69-.03-2.62s0-1.83.03-2.68c.08-1.67.46-3.11,1.15-4.32s1.67-2.14,2.95-2.78c1.28-.64,2.83-.97,4.66-.97,1.35,0,2.56.18,3.63.54,1.07.36,1.98.85,2.74,1.47.75.62,1.34,1.35,1.76,2.19.42.83.63,1.74.65,2.71.02.18-.03.33-.16.45-.13.12-.28.18-.46.18h-2.83c-.22,0-.4-.05-.54-.16-.14-.11-.24-.29-.3-.55-.32-1.31-.86-2.2-1.64-2.68-.77-.48-1.74-.71-2.89-.71-1.33,0-2.39.37-3.19,1.12s-1.22,1.97-1.28,3.68c-.06,1.63-.06,3.29,0,5,.06,1.71.49,2.93,1.28,3.68s1.86,1.12,3.19,1.12c1.15,0,2.11-.24,2.89-.73s1.32-1.37,1.64-2.66c.06-.28.16-.47.3-.57s.32-.15.54-.15h2.83c.18,0,.33.06.46.18.13.12.18.27.16.45-.02.97-.24,1.88-.65,2.71-.42.83-1,1.56-1.76,2.19-.75.63-1.67,1.12-2.74,1.47-1.07.36-2.28.54-3.63.54Z"/>
        <path class="st2" d="M229.96,76.03c-.2,0-.37-.06-.51-.19-.14-.13-.21-.3-.21-.52v-19.38c0-.22.07-.4.21-.54.14-.14.31-.21.51-.21h2.71c.22,0,.39.07.52.21.13.14.19.32.19.54v7.68h8.78v-7.68c0-.22.07-.4.21-.54.14-.14.31-.21.51-.21h2.68c.22,0,.4.07.54.21.14.14.21.32.21.54v19.38c0,.2-.07.37-.21.51-.14.14-.32.21-.54.21h-2.68c-.2,0-.37-.07-.51-.21-.14-.14-.21-.31-.21-.51v-7.98h-8.78v7.98c0,.2-.06.37-.19.51-.13.14-.3.21-.52.21h-2.71Z"/>
        <path class="st2" d="M251.66,76.03c-.2,0-.37-.07-.51-.21-.14-.14-.21-.31-.21-.51v-19.38c0-.22.07-.4.21-.54.14-.14.31-.21.51-.21h13.1c.22,0,.4.07.54.21.14.14.21.32.21.54v1.96c0,.2-.07.37-.21.51-.14.14-.32.21-.54.21h-9.79v5.27h9.14c.22,0,.4.06.54.19.14.13.21.3.21.52v1.85c0,.22-.07.39-.21.52-.14.13-.32.19-.54.19h-9.14v5.45h10.03c.22,0,.4.07.54.21.14.14.21.32.21.54v1.96c0,.2-.07.37-.21.51-.14.14-.32.21-.54.21h-13.34Z"/>
      </g>
      <g class="st1">
        <path class="st2" d="M43.32,111.37c-.2,0-.37-.07-.51-.21-.14-.14-.21-.31-.21-.51v-19.38c0-.22.07-.4.21-.54.14-.14.31-.21.51-.21h7.98c1.55,0,2.9.24,4.05.73,1.15.49,2.04,1.22,2.68,2.2.63.98.95,2.21.95,3.68s-.32,2.71-.95,3.68c-.64.96-1.53,1.68-2.68,2.16-1.15.48-2.5.71-4.05.71h-4.44v6.97c0,.2-.06.37-.19.51-.13.14-.3.21-.52.21h-2.83ZM46.81,100.38h4.35c1.15,0,2.03-.27,2.65-.82.61-.55.92-1.35.92-2.43,0-.99-.29-1.79-.86-2.4-.58-.6-1.48-.91-2.71-.91h-4.35v6.55Z"/>
        <path class="st2" d="M62.94,111.37c-.2,0-.37-.07-.51-.21-.14-.14-.21-.31-.21-.51v-19.38c0-.22.07-.4.21-.54.14-.14.31-.21.51-.21h7.71c2.4,0,4.3.56,5.69,1.67,1.39,1.11,2.08,2.73,2.08,4.85,0,1.47-.36,2.69-1.09,3.66-.72.97-1.69,1.68-2.9,2.11l4.35,7.59c.06.12.09.23.09.33,0,.18-.06.33-.19.45s-.27.18-.43.18h-2.71c-.34,0-.6-.09-.77-.27-.18-.18-.32-.36-.42-.54l-3.84-7.06h-4.14v7.14c0,.2-.06.37-.19.51-.13.14-.3.21-.52.21h-2.71ZM66.36,100.14h4.2c1.21,0,2.11-.27,2.71-.82.6-.55.89-1.31.89-2.31s-.29-1.77-.88-2.34c-.59-.57-1.49-.85-2.72-.85h-4.2v6.31Z"/>
        <path class="st2" d="M80.98,111.37c-.16,0-.3-.06-.43-.18s-.19-.27-.19-.45c0-.08.02-.17.06-.27l7.17-19.2c.06-.2.17-.37.34-.52.17-.15.4-.22.7-.22h3.25c.3,0,.53.07.68.22.16.15.28.32.36.52l7.17,19.2c.02.1.03.19.03.27,0,.18-.06.33-.18.45s-.26.18-.42.18h-2.59c-.28,0-.48-.06-.61-.19s-.21-.25-.25-.37l-1.4-3.63h-8.84l-1.4,3.63c-.04.12-.12.24-.25.37s-.33.19-.61.19h-2.59ZM86.88,103.75h6.76l-3.39-9.2-3.36,9.2Z"/>
        <path class="st2" d="M101.73,111.37c-.18,0-.33-.06-.45-.18s-.18-.27-.18-.45c0-.06,0-.12.03-.18s.04-.12.06-.18l6.67-9.65-6.25-9.23c-.06-.12-.09-.24-.09-.36,0-.18.06-.33.18-.45s.26-.18.42-.18h3.07c.24,0,.43.06.57.18s.26.25.36.39l4.38,6.43,4.41-6.43c.08-.14.19-.27.34-.39.15-.12.34-.18.58-.18h2.89c.18,0,.33.06.45.18s.18.27.18.45c0,.12-.04.24-.12.36l-6.22,9.23,6.67,9.65c.04.06.07.12.09.18.02.06.03.12.03.18,0,.18-.06.33-.19.45s-.27.18-.43.18h-3.16c-.24,0-.43-.06-.57-.18-.14-.12-.25-.24-.33-.36l-4.76-6.73-4.67,6.73c-.08.12-.19.24-.33.36s-.34.18-.59.18h-3.01Z"/>
        <path class="st2" d="M123.31,111.37c-.2,0-.37-.07-.51-.21-.14-.14-.21-.31-.21-.51v-19.41c0-.2.07-.37.21-.51.14-.14.31-.21.51-.21h2.8c.22,0,.39.07.52.21.13.14.19.31.19.51v19.41c0,.2-.07.37-.19.51-.13.14-.3.21-.52.21h-2.8Z"/>
        <path class="st2" d="M138.73,111.67c-1.85,0-3.39-.27-4.63-.82-1.24-.54-2.18-1.26-2.83-2.14-.65-.88-.99-1.81-1.03-2.78,0-.18.06-.33.18-.45s.27-.18.45-.18h2.65c.26,0,.45.05.58.16s.24.24.34.4c.12.38.35.75.68,1.12.34.37.8.67,1.38.91.59.24,1.33.36,2.22.36,1.43,0,2.5-.24,3.2-.71.71-.48,1.06-1.12,1.06-1.93,0-.58-.19-1.04-.57-1.38-.38-.35-.96-.66-1.74-.95s-1.82-.59-3.11-.91c-1.49-.36-2.73-.79-3.74-1.29-1-.51-1.76-1.15-2.26-1.92-.51-.77-.76-1.76-.76-2.95s.31-2.17.94-3.07c.62-.89,1.52-1.6,2.68-2.11,1.16-.52,2.55-.77,4.15-.77,1.29,0,2.43.17,3.42.52.99.35,1.82.8,2.47,1.37.65.57,1.16,1.17,1.5,1.82.35.65.53,1.28.55,1.89,0,.16-.05.3-.16.43-.11.13-.26.19-.46.19h-2.77c-.16,0-.32-.04-.48-.12-.16-.08-.29-.23-.39-.45-.12-.62-.51-1.14-1.16-1.58-.66-.44-1.5-.65-2.53-.65s-1.93.2-2.59.6c-.66.4-.98,1.01-.98,1.85,0,.56.16,1.02.49,1.38s.85.69,1.58.97c.72.28,1.68.58,2.87.89,1.69.38,3.07.81,4.14,1.31,1.07.5,1.86,1.13,2.35,1.89.5.76.74,1.73.74,2.9,0,1.31-.35,2.43-1.06,3.35-.71.92-1.69,1.63-2.96,2.13-1.27.5-2.75.75-4.44.75Z"/>
        <path class="st2" d="M163.83,111.67c-1.45,0-2.72-.24-3.81-.73-1.09-.49-1.94-1.18-2.53-2.08-.6-.9-.89-1.96-.89-3.17,0-.87.18-1.65.54-2.34s.85-1.3,1.47-1.85c.62-.54,1.32-1.05,2.1-1.5-.85-.89-1.46-1.71-1.82-2.44-.36-.73-.54-1.48-.54-2.23,0-.91.24-1.75.71-2.52.48-.76,1.16-1.38,2.05-1.86.89-.48,1.98-.71,3.27-.71,1.21,0,2.25.23,3.11.68s1.53,1.07,2.01,1.83c.48.76.71,1.6.71,2.52,0,.83-.19,1.57-.58,2.22-.39.65-.91,1.23-1.56,1.74-.66.52-1.39,1-2.2,1.46l4.29,4.26c.24-.4.51-.92.8-1.56s.56-1.44.77-2.4c.06-.34.27-.51.62-.51h2.17c.18,0,.32.05.43.16.11.11.16.25.16.43-.02.42-.1.87-.25,1.37-.15.5-.35,1.02-.6,1.58s-.53,1.1-.85,1.64-.65,1.04-1.01,1.52l3.16,3.22c.16.14.24.29.24.45s-.05.29-.15.39-.24.15-.42.15h-2.86c-.2,0-.36-.03-.48-.09-.12-.06-.23-.13-.33-.21l-1.64-1.61c-.79.69-1.69,1.24-2.69,1.62-1,.39-2.15.58-3.44.58ZM163.83,108.6c.69,0,1.37-.13,2.02-.39.65-.26,1.26-.64,1.82-1.16l-4.76-4.7c-.7.38-1.29.82-1.8,1.34-.51.52-.76,1.14-.76,1.88,0,.64.16,1.18.49,1.62.33.45.76.79,1.29,1.04.54.25,1.1.37,1.7.37ZM163.8,98.48c.54-.3,1.03-.6,1.49-.89.46-.3.82-.63,1.09-1,.27-.37.4-.78.4-1.24,0-.67-.23-1.21-.68-1.61-.46-.4-1.03-.6-1.73-.6-.64,0-1.2.19-1.68.58-.49.39-.73.93-.73,1.62,0,.3.05.6.16.89.11.3.3.62.57.97.27.35.64.77,1.12,1.26Z"/>
        <path class="st2" d="M186.36,111.37c-.22,0-.4-.07-.54-.21-.14-.14-.21-.31-.21-.51v-19.38c0-.22.07-.4.21-.54.14-.14.32-.21.54-.21h2.35c.28,0,.49.07.62.22.14.15.23.26.27.34l5.75,10.72,5.8-10.72c.04-.08.13-.19.27-.34.14-.15.35-.22.62-.22h2.32c.22,0,.4.07.54.21.14.14.21.32.21.54v19.38c0,.2-.07.37-.21.51-.14.14-.32.21-.54.21h-2.5c-.22,0-.39-.07-.52-.21-.13-.14-.19-.31-.19-.51v-12.89l-4.17,7.95c-.1.18-.23.33-.39.46-.16.13-.37.19-.62.19h-1.22c-.28,0-.49-.06-.64-.19-.15-.13-.27-.28-.37-.46l-4.17-7.95v12.89c0,.2-.07.37-.21.51s-.31.21-.51.21h-2.5Z"/>
        <path class="st2" d="M217.77,111.67c-1.77,0-3.29-.29-4.55-.88-1.27-.58-2.26-1.49-2.98-2.71-.71-1.22-1.1-2.74-1.16-4.57-.02-.85-.03-1.7-.03-2.53s0-1.69.03-2.56c.06-1.81.46-3.31,1.19-4.52s1.74-2.12,3.02-2.74,2.77-.92,4.48-.92,3.21.31,4.5.92,2.3,1.53,3.04,2.74,1.13,2.72,1.19,4.52c.04.87.06,1.73.06,2.56s-.02,1.68-.06,2.53c-.06,1.83-.45,3.35-1.16,4.57s-1.71,2.12-2.99,2.71c-1.28.59-2.8.88-4.57.88ZM217.77,108.24c1.29,0,2.34-.38,3.16-1.15.81-.76,1.25-2.01,1.31-3.74.04-.87.06-1.68.06-2.43s-.02-1.54-.06-2.4c-.04-1.15-.25-2.09-.64-2.81-.39-.72-.91-1.25-1.56-1.58-.66-.33-1.41-.49-2.26-.49s-1.58.16-2.23.49c-.66.33-1.18.85-1.56,1.58-.39.72-.6,1.66-.64,2.81-.02.85-.03,1.65-.03,2.4s0,1.55.03,2.43c.06,1.73.5,2.97,1.31,3.74.81.76,1.86,1.15,3.13,1.15Z"/>
        <path class="st2" d="M231.17,111.37c-.2,0-.37-.07-.51-.21-.14-.14-.21-.31-.21-.51v-19.38c0-.22.07-.4.21-.54.14-.14.31-.21.51-.21h7.71c2.4,0,4.3.56,5.69,1.67,1.39,1.11,2.08,2.73,2.08,4.85,0,1.47-.36,2.69-1.09,3.66-.72.97-1.69,1.68-2.9,2.11l4.35,7.59c.06.12.09.23.09.33,0,.18-.06.33-.19.45s-.27.18-.43.18h-2.71c-.34,0-.6-.09-.77-.27-.18-.18-.32-.36-.42-.54l-3.84-7.06h-4.14v7.14c0,.2-.06.37-.19.51-.13.14-.3.21-.52.21h-2.71ZM234.59,100.14h4.2c1.21,0,2.11-.27,2.71-.82.6-.55.89-1.31.89-2.31s-.29-1.77-.88-2.34c-.59-.57-1.49-.85-2.72-.85h-4.2v6.31Z"/>
        <path class="st2" d="M251.2,111.37c-.2,0-.37-.07-.51-.21-.14-.14-.21-.31-.21-.51v-19.38c0-.22.07-.4.21-.54.14-.14.31-.21.51-.21h13.1c.22,0,.4.07.54.21.14.14.21.32.21.54v1.96c0,.2-.07.37-.21.51-.14.14-.32.21-.54.21h-9.79v5.27h9.14c.22,0,.4.06.54.19.14.13.21.3.21.52v1.85c0,.22-.07.39-.21.52-.14.13-.32.19-.54.19h-9.14v5.45h10.03c.22,0,.4.07.54.21.14.14.21.32.21.54v1.96c0,.2-.07.37-.21.51-.14.14-.32.21-.54.21h-13.34Z"/>
      </g>
    </g>
  </g>
  <g id="text12-1-3-8">
    <g class="st1">
      <path class="st0" d="M45.06,189.76c-.15,0-.27-.05-.36-.14s-.14-.22-.14-.36v-12.98h-4.24c-.15,0-.27-.05-.36-.14s-.14-.22-.14-.36v-.93c0-.16.05-.29.14-.39.1-.09.22-.14.36-.14h10.64c.16,0,.29.05.39.14.1.1.14.22.14.39v.93c0,.15-.05.27-.14.36s-.22.14-.39.14h-4.21v12.98c0,.15-.05.27-.14.36s-.22.14-.39.14h-1.15Z"/>
      <path class="st0" d="M54.83,189.98c-.74,0-1.41-.15-2.01-.44-.6-.29-1.09-.69-1.46-1.19-.37-.5-.55-1.07-.55-1.7,0-1.01.41-1.82,1.24-2.43.82-.6,1.9-1,3.22-1.19l3.29-.46v-.64c0-.71-.2-1.26-.61-1.66-.4-.4-1.06-.6-1.97-.6-.66,0-1.2.13-1.6.4-.41.27-.69.6-.85,1.02-.09.22-.24.33-.46.33h-.99c-.16,0-.28-.05-.36-.14s-.12-.21-.12-.34c0-.22.08-.49.25-.82.17-.32.43-.64.78-.95.35-.31.81-.57,1.36-.78.55-.21,1.22-.32,2.02-.32.88,0,1.62.11,2.23.34.6.23,1.08.53,1.42.92.35.38.6.82.75,1.3s.23.98.23,1.48v7.15c0,.15-.05.27-.14.36s-.22.14-.36.14h-1.01c-.16,0-.29-.05-.38-.14-.09-.1-.13-.22-.13-.36v-.95c-.19.26-.45.53-.77.78-.32.26-.73.47-1.21.64s-1.08.25-1.79.25ZM55.3,188.33c.6,0,1.16-.13,1.66-.39.5-.26.89-.66,1.18-1.2s.43-1.23.43-2.05v-.62l-2.56.38c-1.04.15-1.83.39-2.36.74-.53.35-.79.78-.79,1.31,0,.41.12.75.36,1.03.24.27.55.47.93.61.38.13.76.2,1.16.2Z"/>
      <path class="st0" d="M68.19,189.76c-.82,0-1.49-.16-2.01-.47s-.89-.76-1.12-1.35c-.24-.58-.35-1.27-.35-2.06v-5.83h-1.72c-.15,0-.27-.05-.36-.14-.1-.1-.14-.22-.14-.36v-.75c0-.15.05-.27.14-.36.09-.1.22-.14.36-.14h1.72v-3.69c0-.15.05-.27.14-.36.1-.09.22-.14.36-.14h1.04c.15,0,.27.05.36.14.1.1.14.22.14.36v3.69h2.74c.15,0,.27.05.36.14.09.1.14.22.14.36v.75c0,.15-.05.27-.14.36-.1.1-.22.14-.36.14h-2.74v5.67c0,.69.12,1.24.35,1.63.24.4.65.6,1.26.6h1.35c.15,0,.27.05.36.14.09.1.14.22.14.36v.79c0,.15-.05.27-.14.36-.1.1-.22.14-.36.14h-1.52Z"/>
      <path class="st0" d="M72.66,176.15c-.15,0-.27-.05-.36-.14s-.14-.22-.14-.36v-1.19c0-.15.05-.27.14-.36s.22-.14.36-.14h1.39c.15,0,.27.05.36.14s.14.22.14.36v1.19c0,.15-.05.27-.14.36s-.22.14-.36.14h-1.39ZM72.84,189.76c-.15,0-.27-.05-.36-.14s-.14-.22-.14-.36v-10.46c0-.15.05-.27.14-.36s.22-.14.36-.14h1.06c.15,0,.26.05.35.14.09.1.13.22.13.36v10.46c0,.15-.04.27-.13.36-.09.1-.21.14-.35.14h-1.06Z"/>
      <path class="st0" d="M80.87,189.98c-.74,0-1.41-.15-2.01-.44-.6-.29-1.09-.69-1.46-1.19-.37-.5-.55-1.07-.55-1.7,0-1.01.41-1.82,1.24-2.43.82-.6,1.9-1,3.22-1.19l3.29-.46v-.64c0-.71-.2-1.26-.61-1.66-.4-.4-1.06-.6-1.97-.6-.66,0-1.2.13-1.6.4-.41.27-.69.6-.85,1.02-.09.22-.24.33-.46.33h-.99c-.16,0-.28-.05-.36-.14s-.12-.21-.12-.34c0-.22.08-.49.25-.82.17-.32.43-.64.78-.95.35-.31.81-.57,1.36-.78.55-.21,1.22-.32,2.02-.32.88,0,1.62.11,2.23.34.6.23,1.08.53,1.42.92.35.38.6.82.75,1.3s.23.98.23,1.48v7.15c0,.15-.05.27-.14.36s-.22.14-.36.14h-1.01c-.16,0-.29-.05-.38-.14-.09-.1-.13-.22-.13-.36v-.95c-.19.26-.45.53-.77.78-.32.26-.73.47-1.21.64s-1.08.25-1.79.25ZM81.34,188.33c.6,0,1.16-.13,1.66-.39.5-.26.89-.66,1.18-1.2s.43-1.23.43-2.05v-.62l-2.56.38c-1.04.15-1.83.39-2.36.74-.53.35-.79.78-.79,1.31,0,.41.12.75.36,1.03.24.27.55.47.93.61.38.13.76.2,1.16.2Z"/>
      <path class="st0" d="M90.36,189.76c-.15,0-.27-.05-.36-.14s-.14-.22-.14-.36v-10.46c0-.15.05-.27.14-.36s.22-.14.36-.14h1.04c.15,0,.27.05.36.14s.14.22.14.36v.97c.38-.5.86-.91,1.45-1.22s1.33-.47,2.24-.47,1.77.21,2.44.63c.67.42,1.17,1,1.51,1.74.34.74.51,1.61.51,2.59v6.22c0,.15-.04.27-.13.36-.09.1-.21.14-.35.14h-1.1c-.15,0-.27-.05-.36-.14s-.14-.22-.14-.36v-6.11c0-1.03-.25-1.83-.75-2.42s-1.24-.87-2.21-.87c-.91,0-1.64.29-2.2.87s-.83,1.39-.83,2.42v6.11c0,.15-.05.27-.14.36s-.22.14-.36.14h-1.1Z"/>
      <path class="st0" d="M106.43,189.98c-.74,0-1.41-.15-2.01-.44-.6-.29-1.09-.69-1.46-1.19-.37-.5-.55-1.07-.55-1.7,0-1.01.41-1.82,1.24-2.43.82-.6,1.9-1,3.22-1.19l3.29-.46v-.64c0-.71-.2-1.26-.61-1.66-.4-.4-1.06-.6-1.97-.6-.66,0-1.2.13-1.6.4-.41.27-.69.6-.85,1.02-.09.22-.24.33-.46.33h-.99c-.16,0-.28-.05-.36-.14s-.12-.21-.12-.34c0-.22.08-.49.25-.82.17-.32.43-.64.78-.95.35-.31.81-.57,1.36-.78.55-.21,1.22-.32,2.02-.32.88,0,1.62.11,2.23.34.6.23,1.08.53,1.42.92.35.38.6.82.75,1.3s.23.98.23,1.48v7.15c0,.15-.05.27-.14.36s-.22.14-.36.14h-1.01c-.16,0-.29-.05-.38-.14-.09-.1-.13-.22-.13-.36v-.95c-.19.26-.45.53-.77.78-.32.26-.73.47-1.21.64s-1.08.25-1.79.25ZM106.89,188.33c.6,0,1.16-.13,1.66-.39.5-.26.89-.66,1.18-1.2s.43-1.23.43-2.05v-.62l-2.56.38c-1.04.15-1.83.39-2.36.74-.53.35-.79.78-.79,1.31,0,.41.12.75.36,1.03.24.27.55.47.93.61.38.13.76.2,1.16.2Z"/>
      <path class="st0" d="M126.66,189.98c-1.35,0-2.48-.25-3.37-.75-.89-.5-1.56-1.2-2.02-2.1s-.71-1.94-.75-3.13c-.01-.6-.02-1.25-.02-1.94s0-1.35.02-1.99c.04-1.19.29-2.24.75-3.13s1.13-1.6,2.02-2.1c.89-.5,2.01-.75,3.37-.75,1.01,0,1.9.14,2.67.42.76.28,1.4.65,1.91,1.12.51.47.89,1,1.16,1.58s.41,1.18.44,1.8c.01.13-.03.24-.12.33-.1.09-.21.13-.34.13h-1.21c-.13,0-.25-.04-.34-.11-.1-.07-.17-.21-.21-.4-.25-1.15-.72-1.93-1.4-2.36-.68-.43-1.54-.64-2.57-.64-1.18,0-2.11.33-2.8,1-.69.67-1.07,1.74-1.12,3.21-.04,1.21-.04,2.44,0,3.71.06,1.47.43,2.54,1.12,3.21.69.67,1.63,1,2.8,1,1.03,0,1.89-.21,2.57-.64.68-.43,1.15-1.21,1.4-2.36.04-.19.11-.32.21-.4s.21-.11.34-.11h1.21c.13,0,.25.04.34.13.09.09.14.2.12.33-.03.62-.18,1.22-.44,1.8s-.65,1.11-1.16,1.58c-.51.47-1.14.85-1.91,1.12-.77.28-1.66.42-2.67.42Z"/>
      <path class="st0" d="M140.21,189.98c-1.12,0-2.05-.21-2.8-.64-.75-.43-1.32-1.02-1.72-1.78-.4-.76-.62-1.62-.66-2.59-.01-.25-.02-.57-.02-.96s0-.7.02-.94c.04-.99.27-1.85.67-2.6s.98-1.34,1.73-1.77c.75-.43,1.68-.64,2.78-.64s2.03.21,2.78.64c.75.43,1.33,1.02,1.73,1.77.4.75.63,1.62.67,2.6.01.24.02.55.02.94s0,.71-.02.96c-.04.97-.26,1.84-.66,2.59-.4.76-.97,1.35-1.72,1.78-.75.43-1.68.64-2.8.64ZM140.21,188.28c.91,0,1.64-.29,2.18-.87.54-.58.84-1.43.88-2.55.01-.22.02-.5.02-.84s0-.62-.02-.84c-.04-1.12-.34-1.97-.88-2.55-.54-.58-1.27-.87-2.18-.87s-1.64.29-2.2.87-.84,1.43-.87,2.55c-.01.22-.02.5-.02.84s0,.62.02.84c.03,1.12.32,1.97.87,2.55s1.28.87,2.2.87Z"/>
      <path class="st0" d="M152.88,189.98c-1.12,0-2.05-.21-2.8-.64-.75-.43-1.32-1.02-1.72-1.78-.4-.76-.62-1.62-.66-2.59-.01-.25-.02-.57-.02-.96s0-.7.02-.94c.04-.99.27-1.85.67-2.6s.98-1.34,1.73-1.77c.75-.43,1.68-.64,2.78-.64s2.03.21,2.78.64c.75.43,1.33,1.02,1.73,1.77.4.75.63,1.62.67,2.6.01.24.02.55.02.94s0,.71-.02.96c-.04.97-.26,1.84-.66,2.59-.4.76-.97,1.35-1.72,1.78-.75.43-1.68.64-2.8.64ZM152.88,188.28c.91,0,1.64-.29,2.18-.87.54-.58.84-1.43.88-2.55.01-.22.02-.5.02-.84s0-.62-.02-.84c-.04-1.12-.34-1.97-.88-2.55-.54-.58-1.27-.87-2.18-.87s-1.64.29-2.2.87-.84,1.43-.87,2.55c-.01.22-.02.5-.02.84s0,.62.02.84c.03,1.12.32,1.97.87,2.55s1.28.87,2.2.87Z"/>
      <path class="st0" d="M161.38,189.76c-.15,0-.27-.05-.36-.14s-.14-.22-.14-.36v-14.65c0-.15.05-.27.14-.36.1-.09.22-.14.36-.14h1.04c.15,0,.27.05.36.14.09.1.14.22.14.36v7.68l4.35-3.62c.18-.15.31-.25.41-.3s.25-.08.47-.08h1.17c.13,0,.24.04.33.13s.13.2.13.33c0,.06-.02.12-.05.2-.04.07-.11.15-.21.22l-5.1,4.24,5.65,5.49c.18.15.26.28.26.4,0,.13-.04.24-.13.33s-.2.13-.33.13h-1.15c-.22,0-.38-.03-.49-.08-.1-.05-.24-.15-.4-.3l-4.92-4.7v4.57c0,.15-.05.27-.14.36-.1.1-.22.14-.36.14h-1.04Z"/>
      <path class="st0" d="M176.27,189.98c-1.52,0-2.72-.47-3.62-1.4s-1.39-2.21-1.48-3.83c-.01-.19-.02-.44-.02-.74s0-.55.02-.74c.06-1.04.3-1.96.73-2.75.43-.79,1.01-1.39,1.75-1.82.74-.43,1.61-.64,2.62-.64,1.12,0,2.06.24,2.81.71s1.33,1.14,1.73,2.01.6,1.88.6,3.04v.38c0,.16-.05.29-.14.38-.1.09-.22.13-.36.13h-7.63v.2c.03.6.16,1.17.4,1.69s.57.95,1.02,1.27c.44.32.97.49,1.59.49.53,0,.97-.08,1.32-.24.35-.16.64-.34.86-.54.22-.2.37-.35.44-.45.13-.19.24-.3.31-.34.07-.04.19-.06.35-.06h1.06c.15,0,.27.04.36.12.09.08.14.19.12.34-.01.22-.13.49-.35.81s-.54.63-.95.94c-.41.31-.91.56-1.5.76-.59.2-1.27.3-2.03.3ZM173.27,183.19h6.05v-.07c0-.66-.12-1.25-.36-1.77-.24-.51-.59-.92-1.05-1.22s-1-.45-1.63-.45-1.17.15-1.62.45c-.45.3-.79.71-1.03,1.22-.24.52-.35,1.1-.35,1.77v.07Z"/>
      <path class="st0" d="M190.26,189.76c-.15,0-.27-.05-.36-.14s-.14-.22-.14-.36v-14.41c0-.16.05-.29.14-.39.1-.09.22-.14.36-.14h1.1c.18,0,.31.04.4.13.09.09.14.16.16.22l4.68,8.92,4.7-8.92c.03-.06.08-.13.17-.22s.21-.13.39-.13h1.08c.16,0,.29.05.39.14.1.1.14.22.14.39v14.41c0,.15-.05.27-.14.36s-.22.14-.39.14h-1.08c-.15,0-.27-.05-.36-.14-.1-.1-.14-.22-.14-.36v-10.86l-3.69,7.19c-.06.15-.15.26-.26.34-.12.08-.26.12-.44.12h-.68c-.19,0-.34-.04-.45-.12s-.2-.19-.28-.34l-3.69-7.19v10.86c0,.15-.05.27-.14.36s-.22.14-.36.14h-1.08Z"/>
      <path class="st0" d="M211.27,189.98c-.94,0-1.74-.21-2.39-.63-.65-.42-1.15-1-1.49-1.75-.34-.75-.51-1.61-.51-2.58v-6.22c0-.15.05-.27.14-.36s.22-.14.36-.14h1.1c.15,0,.27.05.36.14s.14.22.14.36v6.11c0,2.19.96,3.29,2.87,3.29.91,0,1.64-.29,2.2-.87s.83-1.39.83-2.42v-6.11c0-.15.05-.27.14-.36s.22-.14.36-.14h1.08c.16,0,.29.05.38.14.09.1.13.22.13.36v10.46c0,.15-.04.27-.13.36-.09.1-.21.14-.38.14h-1.01c-.15,0-.27-.05-.36-.14s-.14-.22-.14-.36v-.97c-.4.51-.88.93-1.45,1.24-.57.31-1.31.46-2.24.46Z"/>
      <path class="st0" d="M220.78,189.76c-.15,0-.27-.05-.36-.14s-.14-.22-.14-.36v-10.46c0-.15.05-.27.14-.36s.22-.14.36-.14h1.04c.15,0,.27.05.36.14s.14.22.14.36v.97c.38-.5.86-.91,1.45-1.22s1.33-.47,2.24-.47,1.77.21,2.44.63c.67.42,1.17,1,1.51,1.74.34.74.51,1.61.51,2.59v6.22c0,.15-.04.27-.13.36-.09.1-.21.14-.35.14h-1.1c-.15,0-.27-.05-.36-.14s-.14-.22-.14-.36v-6.11c0-1.03-.25-1.83-.75-2.42s-1.24-.87-2.21-.87c-.91,0-1.64.29-2.2.87s-.83,1.39-.83,2.42v6.11c0,.15-.05.27-.14.36s-.22.14-.36.14h-1.1Z"/>
      <path class="st0" d="M234.18,189.76c-.15,0-.27-.05-.36-.14s-.14-.22-.14-.36v-14.65c0-.15.05-.27.14-.36.1-.09.22-.14.36-.14h1.04c.15,0,.27.05.36.14.09.1.14.22.14.36v7.68l4.35-3.62c.18-.15.31-.25.41-.3s.25-.08.47-.08h1.17c.13,0,.24.04.33.13s.13.2.13.33c0,.06-.02.12-.05.2-.04.07-.11.15-.21.22l-5.1,4.24,5.65,5.49c.18.15.26.28.26.4,0,.13-.04.24-.13.33s-.2.13-.33.13h-1.15c-.22,0-.38-.03-.49-.08-.1-.05-.24-.15-.4-.3l-4.92-4.7v4.57c0,.15-.05.27-.14.36-.1.1-.22.14-.36.14h-1.04Z"/>
      <path class="st0" d="M249.07,189.98c-1.52,0-2.72-.47-3.62-1.4s-1.39-2.21-1.48-3.83c-.01-.19-.02-.44-.02-.74s0-.55.02-.74c.06-1.04.3-1.96.73-2.75.43-.79,1.01-1.39,1.75-1.82.74-.43,1.61-.64,2.62-.64,1.12,0,2.06.24,2.81.71s1.33,1.14,1.73,2.01.6,1.88.6,3.04v.38c0,.16-.05.29-.14.38-.1.09-.22.13-.36.13h-7.63v.2c.03.6.16,1.17.4,1.69s.57.95,1.02,1.27c.44.32.97.49,1.59.49.53,0,.97-.08,1.32-.24.35-.16.64-.34.86-.54.22-.2.37-.35.44-.45.13-.19.24-.3.31-.34.07-.04.19-.06.35-.06h1.06c.15,0,.27.04.36.12.09.08.14.19.12.34-.01.22-.13.49-.35.81s-.54.63-.95.94c-.41.31-.91.56-1.5.76-.59.2-1.27.3-2.03.3ZM246.07,183.19h6.05v-.07c0-.66-.12-1.25-.36-1.77-.24-.51-.59-.92-1.05-1.22s-1-.45-1.63-.45-1.17.15-1.62.45c-.45.3-.79.71-1.03,1.22-.24.52-.35,1.1-.35,1.77v.07Z"/>
      <path class="st0" d="M260.84,189.98c-.82,0-1.53-.1-2.12-.31-.59-.21-1.07-.46-1.43-.75-.37-.29-.64-.59-.83-.88-.18-.29-.28-.53-.3-.71-.01-.16.04-.29.15-.38.12-.09.24-.13.35-.13h.97c.09,0,.16.01.21.03.05.02.12.08.21.19.19.21.41.41.64.62s.53.38.87.51c.35.13.78.2,1.29.2.75,0,1.37-.14,1.85-.43.49-.29.73-.71.73-1.27,0-.37-.1-.66-.3-.88-.2-.22-.55-.42-1.06-.6-.51-.18-1.2-.36-2.09-.55-.88-.21-1.58-.46-2.1-.76-.51-.3-.88-.66-1.1-1.08-.22-.42-.33-.89-.33-1.42s.16-1.07.49-1.58c.32-.51.8-.92,1.42-1.25.62-.32,1.41-.49,2.35-.49.76,0,1.42.1,1.96.29.54.19.99.43,1.35.72.35.29.62.57.79.85.18.28.27.52.29.71.01.15-.03.27-.13.36s-.22.14-.35.14h-.93c-.1,0-.19-.02-.25-.07-.07-.04-.13-.1-.19-.15-.15-.19-.32-.38-.52-.57-.2-.19-.46-.35-.77-.47-.32-.12-.73-.19-1.25-.19-.74,0-1.29.15-1.66.46-.37.31-.55.7-.55,1.17,0,.28.08.53.24.75.16.22.47.42.93.6.46.18,1.13.37,2.03.57.97.19,1.74.45,2.29.77.56.32.96.7,1.19,1.12s.35.92.35,1.48c0,.62-.18,1.18-.54,1.7-.36.52-.89.92-1.59,1.22-.7.3-1.56.45-2.59.45Z"/>
    </g>
  </g>
</svg>