<?xml version="1.0" encoding="UTF-8"?>
<svg id="Layer_1" xmlns="http://www.w3.org/2000/svg" version="1.1" viewBox="0 0 362.64 275.82">
  <!-- Generator: Adobe Illustrator 29.8.2, SVG Export Plug-In . SVG Version: 2.1.1 Build 3)  -->
  <defs>
    <style>
      .st0 {
        fill: #31bbca;
      }

      .st0, .st1, .st2, .st3 {
        isolation: isolate;
        opacity: .45;
      }

      .st1 {
        fill: #4389c8;
      }

      .st2 {
        fill: #b78ec1;
      }

      .st3 {
        fill: #4561ad;
        fill-opacity: .55;
      }
    </style>
  </defs>
  <path id="path1-4-1-2-7-0-0" class="st1" d="M147.75,198.81c15.69,16.72,25.59,58.39,26.39,58.39,2.93.07.89-30.06,39.9-42.07,39.01-12.01,80.04-14.83,111.03-32.51,30.99-17.67,48.07-72.47-35.04-118.21-83.11-45.74-187.84-11.84-196.97,42.02-9.13,53.86,39.01,75.66,54.69,92.38h0Z"/>
  <path id="path1-4-1-2-7-0-3-1" class="st0" d="M116.2,212.75c35.67,9.17,45.48,26.94,55.18,40.48,1.13,1.68,2.29,3.99,2.79,3.97,2.71-.07-3.03-29.7,13.05-56.08,28.07-46.06,92.37-53.09,88.17-130.26-1.34-24.57-60.64-79.92-154.97-37.16C34.02,72.86-1.71,148.75,20.93,190.15c15.42,28.2,59.6,13.43,95.27,22.6Z"/>
  <path id="path1-4-1-2-3-0-9" class="st2" d="M115.81,224.57c29.41,5.18,49.88,20.63,56.95,30.92.72,1.04,1.12,1.72,1.44,1.71,2.83-.15-7.93-39.17,3.07-61.49,18.03-36.58,36.72-40.66,46.73-80.45,4.54-18.04-15.03-69.88-88.94-44.1C61.16,96.94,2.26,181.88,47.77,215.85c16.44,12.26,38.62,3.54,68.04,8.73Z"/>
  <path id="path1-4-1-2-7-8-1-8" class="st3" d="M148.48,218.56c14.1,12.39,24.32,37.65,25.65,38.65,2.6,0,.7-32.59,21.37-45.99s32.13-12.54,56.38-28.54c11.25-7.43,14.31-49.13-40.55-62.04-54.85-12.91-114.21,12.16-110.47,54.51,2.05,23.27,33.51,31.04,47.61,43.42Z"/>
</svg>